<svg width="1440" height="847" viewBox="0 0 1440 847" fill="none" xmlns="http://www.w3.org/2000/svg">
<g clip-path="url(#clip0_1479_12314)">
<path opacity="0.25" fill-rule="evenodd" clip-rule="evenodd" d="M154.184 380.051C124.381 410.211 80.8426 420.061 37.9979 392.975C-11.3056 361.807 -53.4149 307.015 -53.3271 248.868C-53.2267 182.384 -18.612 128.147 38.4033 124.5C98.1249 120.679 165.139 164.41 196.172 232.905C223.254 292.681 190.029 343.776 154.184 380.051Z" fill="#8EC2F2"/>
<path opacity="0.35" fill-rule="evenodd" clip-rule="evenodd" d="M1234.71 293.094C1279.95 383.192 1288.49 497.158 1196.71 572.189C1102.26 649.408 964.37 646.175 861.539 598.165C765.26 553.215 717.429 459.847 745.561 361.556C774.453 260.612 869.28 173.073 987.963 156.462C1102.51 140.43 1191.5 207.039 1234.71 293.094Z" fill="#8EC2F2"/>
<path opacity="0.4" fill-rule="evenodd" clip-rule="evenodd" d="M1043.51 160.039C1146.64 181.436 1248.32 245.062 1257.67 360.093C1267.3 478.48 1183.04 580.037 1081.54 627.752C986.508 672.427 879.07 650.965 812.367 569.434C743.864 485.702 725.708 360.695 781.789 261.363C835.917 165.493 945.001 139.602 1043.51 160.039Z" fill="#1E90FF"/>
</g>
<defs>
<clipPath id="clip0_1479_12314">
<rect width="1440" height="847" fill="white"/>
</clipPath>
</defs>
</svg>
